<?xml version="1.0" encoding="utf-8"?>
<!-- Generator: Adobe Illustrator 19.2.1, SVG Export Plug-In . SVG Version: 6.00 Build 0)  -->
<svg version="1.1" xmlns="http://www.w3.org/2000/svg" xmlns:xlink="http://www.w3.org/1999/xlink" x="0px" y="0px" viewBox="0 0 370 187.3" style="enable-background:new 0 0 370 187.3;" xml:space="preserve">
	<style type="text/css">
		.st0{fill:url(#SVGID_1_);}
	</style>
<g>
	
	<image style="overflow:visible;opacity:0.3;" width="370" height="183" xlink:href="B3E3D4A2.png" transform="matrix(1 0 0 1 0 4.3285)"></image>
	<g>
		<g>
			<linearGradient id="SVGID_1_" gradientUnits="userSpaceOnUse" x1="15.6149" y1="75.9143" x2="354.4984" y2="75.9143">
				<stop  offset="0" style="stop-color:#FC3C22"/>
				<stop  offset="1" style="stop-color:#FA004A"/>
			</linearGradient>
			<path class="st0" d="M113.7,91.5c-0.2,0-0.4-0.1-0.6-0.1h-4.5v-4.5c0-1.7-1.3-3-3-3c-1.7,0-3,1.3-3,3v10.5h10.5
				c0.2,0,0.4,0,0.6-0.1c0.2,0,0.4,0.1,0.6,0.1h4.5v4.5c0,1.7,1.3,3,3,3c1.7,0,3-1.3,3-3V91.4h-10.5
				C114.1,91.4,113.9,91.4,113.7,91.5z M121.8,105.9c-1.7,0-3,1.3-3,3v4.5h-4.5c-0.2,0-0.4,0-0.6,0.1c-0.2,0-0.4-0.1-0.6-0.1h-10.5
				v10.5c0,1.7,1.3,3,3,3c1.7,0,3-1.3,3-3v-4.5h4.5c0.2,0,0.4,0,0.6-0.1c0.2,0,0.4,0.1,0.6,0.1h10.5v-10.5
				C124.8,107.2,123.5,105.9,121.8,105.9z M105.7,136.7c-1.7,0-3,1.3-3,3v4.5h-4.5c-1.7,0-3,1.3-3,3c0,1.7,1.3,3,3,3h10.5v-10.5
				C108.7,138.1,107.3,136.7,105.7,136.7z M84.7,144.2h-4.5v-4.5c0-1.7-1.3-3-3-3s-3,1.3-3,3v10.5h10.5c1.7,0,3-1.3,3-3
				C87.7,145.6,86.4,144.2,84.7,144.2z M74.2,123.9c0,1.7,1.3,3,3,3s3-1.3,3-3v-10.5H69.7c-1.7,0-3,1.3-3,3c0,1.7,1.3,3,3,3h4.5
				V123.9z M55.4,113.4H41c-1.7,0-3,1.3-3,3c0,1.7,1.3,3,3,3h14.3c1.7,0,3-1.3,3-3C58.4,114.7,57,113.4,55.4,113.4z M26.7,113.4H22
				l-0.3-4.7c-0.1-1.7-1.6-2.9-3.2-2.8c-1.7,0.1-2.9,1.6-2.8,3.2l0.8,10.3h10.3c1.7,0,3-1.3,3-3C29.7,114.7,28.3,113.4,26.7,113.4z
				 M41.1,67.9l8.6-13.7c0.9-1.4,0.5-3.3-1-4.1c-1.4-0.9-3.3-0.5-4.1,1L36,64.7c-0.9,1.4-0.5,3.3,1,4.1c0.5,0.3,1,0.5,1.6,0.5
				C39.6,69.3,40.5,68.8,41.1,67.9z M54.2,41.4c0.5,0.3,1,0.5,1.6,0.5c1,0,2-0.5,2.5-1.4l8.6-13.7c0.9-1.4,0.5-3.3-1-4.1
				c-1.4-0.9-3.3-0.5-4.1,1l-8.6,13.7C52.3,38.7,52.8,40.5,54.2,41.4z M31.6,77.5c-1.4-0.9-3.3-0.5-4.1,1l-8.6,13.7
				c-0.9,1.4-0.5,3.3,1,4.1c0.5,0.3,1,0.5,1.6,0.5c1,0,2-0.5,2.5-1.4l8.6-13.7C33.4,80.2,33,78.3,31.6,77.5z M71.4,13.9
				c0.5,0.3,1,0.5,1.6,0.5c1,0,2-0.5,2.5-1.4L78.6,8h5.8c1.7,0,3-1.3,3-3c0-1.7-1.3-3-3-3h-9.2l-4.9,7.8
				C69.5,11.2,70,13.1,71.4,13.9z M98.2,8h4.5v4.5c0,1.7,1.3,3,3,3c1.7,0,3-1.3,3-3V2H98.2c-1.7,0-3,1.3-3,3C95.2,6.7,96.5,8,98.2,8
				z M108.7,27.4c0-1.7-1.3-3-3-3c-1.7,0-3,1.3-3,3v14.9c0,1.7,1.3,3,3,3c1.7,0,3-1.3,3-3V27.4z M105.7,54.2c-1.7,0-3,1.3-3,3V72
				c0,1.7,1.3,3,3,3c1.7,0,3-1.3,3-3V57.2C108.7,55.5,107.3,54.2,105.7,54.2z M45.9,86.5L39,97.4H52c1.7,0,3-1.3,3-3
				c0-1.7-1.3-3-3-3h-2.1l1.1-1.7c0.9-1.4,0.5-3.3-0.9-4.1C48.7,84.6,46.8,85.1,45.9,86.5z M66.7,94.4c0,1.7,1.3,3,3,3h10.5V86.9
				c0-1.7-1.3-3-3-3s-3,1.3-3,3v4.5h-4.5C68.1,91.4,66.7,92.7,66.7,94.4z M77.2,59.7c-1.7,0-3,1.3-3,3v12.1c0,1.7,1.3,3,3,3
				s3-1.3,3-3V62.7C80.2,61.1,78.9,59.7,77.2,59.7z M71.3,51.9c1,0.6,2.3,0.6,3.3,0c0.5,1,1.5,1.7,2.7,1.7c1.7,0,3-1.3,3-3V41
				l-5-1.7l-3.4,6.1l-1.5,2.4C69.4,49.2,69.8,51.1,71.3,51.9z M66.3,59.7c-1.4-0.9-3.3-0.5-4.1,0.9l-8.1,12.9
				c-0.9,1.4-0.5,3.3,0.9,4.1c0.5,0.3,1.1,0.5,1.6,0.5c1,0,2-0.5,2.5-1.4l8.1-12.9C68.2,62.5,67.7,60.6,66.3,59.7z M136.5,79.1
				c1.7,0,3-1.3,3-3V60.6c0-1.7-1.3-3-3-3c-1.7,0-3,1.3-3,3v15.5C133.5,77.7,134.8,79.1,136.5,79.1z M140.5,106.5
				c-0.7-4.5-1-9.4-1-14.7v-0.3c0-1.7-1.3-3-3-3c-1.7,0-3,1.3-3,3v0.3c0,5.5,0.4,10.8,1.1,15.6c0.2,1.5,1.5,2.5,3,2.5
				c0.2,0,0.3,0,0.5,0C139.6,109.7,140.8,108.2,140.5,106.5z M232.7,88.7c-1.7,0-3,1.3-3,3v0.2c0,5.4-0.4,10.4-1.1,15
				c-0.3,1.6,0.9,3.2,2.5,3.4c0.2,0,0.3,0,0.5,0c1.5,0,2.7-1.1,3-2.5c0.8-4.9,1.2-10.2,1.2-15.9v-0.2
				C235.7,90,234.4,88.7,232.7,88.7z M137.1,48.1c0.2,0,0.3,0,0.5,0c1.5,0,2.7-1.1,3-2.5c0.8-5.2,2.1-10,3.9-14.2
				c0.6-1.5-0.1-3.3-1.6-3.9c-1.5-0.6-3.3,0.1-3.9,1.6c-1.9,4.6-3.4,9.9-4.3,15.6C134.4,46.3,135.5,47.8,137.1,48.1z M232.7,57.7
				c-1.7,0-3,1.3-3,3v15.5c0,1.7,1.3,3,3,3c1.7,0,3-1.3,3-3V60.7C235.7,59.1,234.4,57.7,232.7,57.7z M219.4,20.3
				c0.7,0,1.4-0.3,2-0.8c1.2-1.1,1.3-3,0.2-4.2c-3.8-4.2-8.2-7.6-13.1-10c-1.5-0.7-3.3-0.2-4,1.3c-0.7,1.5-0.2,3.3,1.3,4
				c4.2,2.1,8,5.1,11.4,8.7C217.7,20,218.5,20.3,219.4,20.3z M177.3,6.4c4.7-0.6,10-0.6,14.7,0c0.1,0,0.3,0,0.4,0
				c1.5,0,2.8-1.1,3-2.6c0.2-1.6-0.9-3.2-2.6-3.4c-5.2-0.7-11.1-0.7-16.2,0c-1.6,0.2-2.8,1.7-2.6,3.4C174.1,5.5,175.6,6.7,177.3,6.4
				z M228.7,45.7c0.2,1.5,1.5,2.5,3,2.5c0.2,0,0.3,0,0.5,0c1.6-0.3,2.8-1.8,2.5-3.4c-0.9-5.7-2.3-10.9-4.3-15.6
				c-0.6-1.5-2.4-2.2-3.9-1.6c-1.5,0.6-2.3,2.4-1.6,3.9C226.5,35.7,227.8,40.5,228.7,45.7z M228.7,119.4c-1.5-0.6-3.3,0.1-3.9,1.6
				c-1.9,4.4-4.3,8.4-7.2,11.7c-0.2,0.2-0.3,0.3-0.5,0.5c-1.1,1.2-1,3.1,0.2,4.2c0.6,0.5,1.3,0.8,2,0.8c0.8,0,1.6-0.3,2.2-1
				c0.2-0.2,0.3-0.4,0.5-0.6c3.4-3.8,6.1-8.3,8.3-13.3C230.9,121.8,230.2,120.1,228.7,119.4z M177.1,145.8
				c-5.1-0.7-9.7-2.1-13.8-4.1c-1.5-0.7-3.3-0.2-4,1.3c-0.7,1.5-0.1,3.3,1.3,4c4.7,2.4,10,4,15.7,4.7c0.1,0,0.3,0,0.4,0
				c1.5,0,2.8-1.1,3-2.6C179.9,147.5,178.8,146,177.1,145.8z M164.8,6.5c-0.7-1.5-2.5-2.1-4-1.3c-4.9,2.5-9.3,5.8-13.1,10
				c-1.1,1.2-1,3.1,0.2,4.2c0.6,0.5,1.3,0.8,2,0.8c0.8,0,1.6-0.3,2.2-1c3.3-3.6,7.1-6.6,11.4-8.7C164.9,9.8,165.5,8,164.8,6.5z
				 M151.7,132.7c-3-3.4-5.5-7.4-7.4-11.9c-0.6-1.5-2.4-2.3-3.9-1.6c-1.5,0.6-2.3,2.4-1.6,3.9c2.1,5.2,5,9.8,8.4,13.6l0.3,0.3
				c0.6,0.7,1.4,1,2.2,1c0.7,0,1.4-0.3,2-0.8c1.2-1.1,1.3-3,0.2-4.2L151.7,132.7z M205.7,141.8c-4.1,2-8.8,3.4-13.8,4
				c-1.6,0.2-2.8,1.7-2.6,3.3c0.2,1.5,1.5,2.6,3,2.6c0.1,0,0.3,0,0.4,0c5.7-0.7,11-2.3,15.8-4.6c1.5-0.7,2.1-2.5,1.4-4
				C209,141.7,207.2,141.1,205.7,141.8z M207.3,73c0-1.7-1.3-3-3-3c-1.7,0-3,1.3-3,3v15.4c0,1.7,1.3,3,3,3c1.7,0,3-1.3,3-3V73z
				 M180.9,22.2c-1.6,0.2-2.8,1.8-2.5,3.4c0.2,1.6,1.8,2.8,3.4,2.5c0.9-0.1,1.8-0.2,2.7-0.2c3.8,0,6.8,1,9.3,3.2
				c0.6,0.5,1.3,0.7,2,0.7c0.8,0,1.7-0.4,2.3-1c1.1-1.3,1-3.1-0.3-4.2c-3.6-3.1-8-4.6-13.2-4.6C183.3,22,182.1,22.1,180.9,22.2z
				 M204.2,100.8c-1.6-0.2-3.1,1-3.3,2.7c-0.6,5.8-1.8,10.4-3.6,13.6c-0.8,1.4-0.3,3.3,1.1,4.1c0.5,0.3,1,0.4,1.5,0.4
				c1,0,2.1-0.6,2.6-1.5c2.2-4,3.7-9.3,4.4-15.9C207,102.5,205.8,101,204.2,100.8z M164.9,82.3c1.7,0,3-1.3,3-3V63.9
				c0-1.7-1.3-3-3-3c-1.7,0-3,1.3-3,3v15.4C161.9,81,163.2,82.3,164.9,82.3z M163.4,110.6c0.3,1.4,1.5,2.4,2.9,2.4
				c0.2,0,0.4,0,0.6-0.1c1.6-0.3,2.7-1.9,2.3-3.6c-0.9-4-1.3-9-1.3-14.7c0-1.7-1.3-3-3-3c0,0,0,0,0,0c-1.7,0-3,1.3-3,3
				C161.9,100.8,162.4,106.2,163.4,110.6z M165,51.5c0.1,0,0.2,0,0.3,0c1.5,0,2.8-1.2,3-2.7c0.6-5.8,1.8-10.3,3.6-13.6
				c0.8-1.4,0.3-3.3-1.2-4.1c-1.5-0.8-3.3-0.3-4.1,1.2c-2.2,4-3.7,9.3-4.3,15.9C162.2,49.9,163.4,51.4,165,51.5z M201.3,57.6v0.1
				c0,1.7,1.3,3,3,3c1.7,0,3-1.3,3-3v-0.1c0-6.1-0.5-11.5-1.5-15.9c-0.4-1.6-2-2.6-3.6-2.3c-1.6,0.4-2.6,2-2.3,3.6
				C200.8,46.9,201.3,51.9,201.3,57.6z M190.7,126.7c-0.2-1.6-1.8-2.8-3.4-2.5c-0.8,0.1-1.7,0.2-2.6,0.2c-3.9,0-7-1-9.5-3.2
				c-1.3-1.1-3.2-0.9-4.2,0.3c-1.1,1.3-0.9,3.1,0.3,4.2c3.6,3.1,8.1,4.6,13.4,4.6c1.2,0,2.3-0.1,3.4-0.2
				C189.8,129.8,191,128.3,190.7,126.7z M344,91.4c-0.2,0-0.4,0-0.6,0.1c-0.2,0-0.4-0.1-0.6-0.1h-4.5v-4.5c0-1.7-1.3-3-3-3
				s-3,1.3-3,3v10.5h10.5c0.2,0,0.4,0,0.6-0.1c0.2,0,0.4,0.1,0.6,0.1h4.5v4.5c0,1.7,1.3,3,3,3c1.7,0,3-1.3,3-3V91.4H344z
				 M351.5,105.9c-1.7,0-3,1.3-3,3v4.5H344c-0.2,0-0.4,0-0.6,0.1c-0.2,0-0.4-0.1-0.6-0.1h-10.5v10.5c0,1.7,1.3,3,3,3s3-1.3,3-3v-4.5
				h4.5c0.2,0,0.4,0,0.6-0.1c0.2,0,0.4,0.1,0.6,0.1h10.5v-10.5C354.5,107.2,353.2,105.9,351.5,105.9z M335.4,136.7c-1.7,0-3,1.3-3,3
				v4.5h-4.5c-1.7,0-3,1.3-3,3c0,1.7,1.3,3,3,3h10.5v-10.5C338.4,138.1,337,136.7,335.4,136.7z M314.4,144.2h-4.5v-4.5
				c0-1.7-1.3-3-3-3c-1.7,0-3,1.3-3,3v10.5h10.5c1.7,0,3-1.3,3-3C317.4,145.6,316.1,144.2,314.4,144.2z M303.9,123.9
				c0,1.7,1.3,3,3,3c1.7,0,3-1.3,3-3v-10.5h-10.5c-1.7,0-3,1.3-3,3c0,1.7,1.3,3,3,3h4.5V123.9z M285.1,113.4h-14.3c-1.7,0-3,1.3-3,3
				c0,1.7,1.3,3,3,3h14.3c1.7,0,3-1.3,3-3C288.1,114.7,286.7,113.4,285.1,113.4z M256.4,113.4h-4.7l-0.3-4.7
				c-0.1-1.7-1.5-2.9-3.2-2.8c-1.7,0.1-2.9,1.6-2.8,3.2l0.8,10.3h10.3c1.7,0,3-1.3,3-3C259.4,114.7,258,113.4,256.4,113.4z
				 M283.9,41.4c0.5,0.3,1,0.5,1.6,0.5c1,0,2-0.5,2.5-1.4l8.6-13.7c0.9-1.4,0.5-3.3-1-4.1c-1.4-0.9-3.3-0.5-4.1,1l-8.6,13.7
				C282,38.7,282.5,40.5,283.9,41.4z M270.8,67.9l8.6-13.7c0.9-1.4,0.5-3.3-1-4.1c-1.4-0.9-3.3-0.5-4.1,1l-8.6,13.7
				c-0.9,1.4-0.5,3.3,1,4.1c0.5,0.3,1,0.5,1.6,0.5C269.3,69.3,270.2,68.8,270.8,67.9z M261.3,77.5c-1.4-0.9-3.3-0.5-4.1,1l-8.6,13.7
				c-0.9,1.4-0.5,3.3,1,4.1c0.5,0.3,1,0.5,1.6,0.5c1,0,2-0.5,2.5-1.4l8.6-13.7C263.1,80.2,262.7,78.3,261.3,77.5z M301.1,13.9
				c0.5,0.3,1,0.5,1.6,0.5c1,0,2-0.5,2.5-1.4l3.1-4.9h5.8c1.7,0,3-1.3,3-3c0-1.7-1.3-3-3-3H305l-4.9,7.8
				C299.2,11.2,299.7,13.1,301.1,13.9z M327.9,8h4.5v4.5c0,1.7,1.3,3,3,3s3-1.3,3-3V2h-10.5c-1.7,0-3,1.3-3,3
				C324.9,6.7,326.2,8,327.9,8z M335.4,54.2c-1.7,0-3,1.3-3,3V72c0,1.7,1.3,3,3,3s3-1.3,3-3V57.2C338.4,55.5,337,54.2,335.4,54.2z
				 M338.4,27.4c0-1.7-1.3-3-3-3s-3,1.3-3,3v14.9c0,1.7,1.3,3,3,3s3-1.3,3-3V27.4z M275.6,86.5l-6.9,10.9h12.9c1.7,0,3-1.3,3-3
				c0-1.7-1.3-3-3-3h-2.1l1.1-1.7c0.9-1.4,0.5-3.3-0.9-4.1C278.4,84.6,276.5,85.1,275.6,86.5z M296.4,94.4c0,1.7,1.3,3,3,3h10.5
				V86.9c0-1.7-1.3-3-3-3c-1.7,0-3,1.3-3,3v4.5h-4.5C297.8,91.4,296.4,92.7,296.4,94.4z M306.9,59.7c-1.7,0-3,1.3-3,3v12.1
				c0,1.7,1.3,3,3,3c1.7,0,3-1.3,3-3V62.7C309.9,61.1,308.6,59.7,306.9,59.7z M300.9,51.9c1,0.6,2.3,0.6,3.3,0
				c0.5,1,1.5,1.7,2.7,1.7c1.7,0,3-1.3,3-3V41l-5-1.7l-3.4,6.1l-1.5,2.4C299.1,49.2,299.5,51.1,300.9,51.9z M296,59.7
				c-1.4-0.9-3.3-0.5-4.1,0.9l-8.1,12.9c-0.9,1.4-0.5,3.3,0.9,4.1c0.5,0.3,1.1,0.5,1.6,0.5c1,0,2-0.5,2.5-1.4l8.1-12.9
				C297.8,62.5,297.4,60.6,296,59.7z"/>
		</g>
	</g>
</g>
</svg>
